<?xml version="1.0" standalone="no"?>
<!DOCTYPE svg PUBLIC "-//W3C//DTD SVG 20010904//EN"
 "http://www.w3.org/TR/2001/REC-SVG-20010904/DTD/svg10.dtd">
<svg version="1.0" xmlns="http://www.w3.org/2000/svg"
 width="32.000000pt" height="32.000000pt" viewBox="0 0 32.000000 32.000000"
 preserveAspectRatio="xMidYMid meet">

<g transform="translate(0.000000,32.000000) scale(0.100000,-0.100000)"
fill="#000000" stroke="none">
<path d="M5 158 l0 -153 153 0 152 -1 -150 3 -149 4 -4 149 -3 150 1 -152z"/>
<path d="M70 155 l0 -98 60 6 c68 7 94 20 109 54 17 37 13 70 -13 99 -20 24
-32 28 -90 32 l-66 4 0 -97z m68 68 c-26 -4 -27 -7 -31 -71 l-3 -67 -2 73 -2
72 33 -1 c29 -2 30 -2 5 -6z m63 -20 c13 -17 13 -17 -6 -3 -11 8 -22 16 -24
17 -2 2 0 3 6 3 6 0 17 -8 24 -17z m-31 -17 c16 -20 9 -60 -12 -64 -15 -3 -18
4 -18 37 0 43 9 51 30 27z m47 -38 c-3 -7 -5 -2 -5 12 0 14 2 19 5 13 2 -7 2
-19 0 -25z"/>
</g>
</svg>
