<?xml version="1.0" standalone="no"?>
<!DOCTYPE svg PUBLIC "-//W3C//DTD SVG 20010904//EN"
 "http://www.w3.org/TR/2001/REC-SVG-20010904/DTD/svg10.dtd">
<svg version="1.0" xmlns="http://www.w3.org/2000/svg"
 width="30pt" height="60pt" viewBox="0 0 150.000000 169.000000"
 preserveAspectRatio="xMidYMid meet">

<g transform="translate(0.000000,169.000000) scale(0.100000,-0.100000)"
fill="#000000" stroke="none">
<path d="M297 1373 c-4 -3 -7 -251 -7 -551 l0 -544 243 5 c270 5 322 14 445
73 209 101 313 345 257 609 -50 237 -220 373 -507 404 -107 12 -421 15 -431 4z
m443 -147 c100 -18 154 -44 217 -100 63 -57 98 -126 114 -223 30 -185 -47
-356 -194 -428 -83 -40 -159 -54 -294 -55 l-123 0 0 410 0 410 103 0 c56 -1
136 -7 177 -14z"/>
<path d="M500 830 l0 -380 79 0 c161 0 316 51 378 124 93 110 111 324 37 453
-33 58 -104 117 -172 142 -62 23 -173 40 -264 41 l-58 0 0 -380z m249 214
c122 -36 178 -159 136 -300 -23 -78 -91 -130 -186 -141 l-49 -6 0 232 0 231
23 0 c13 0 47 -7 76 -16z"/>
</g>
</svg>
